<?xml version="1.0" encoding="utf-8"?>
<!-- Generator: Adobe Illustrator 20.0.0, SVG Export Plug-In . SVG Version: 6.00 Build 0)  -->
<svg version="1.1" id="Layer_1" xmlns="http://www.w3.org/2000/svg" xmlns:xlink="http://www.w3.org/1999/xlink" x="0px" y="0px"
	 viewBox="0 0 446.8 275.1" style="enable-background:new 0 0 446.8 275.1;" xml:space="preserve">
<style type="text/css">
	.st0{fill:#963735;}
	.st1{fill:#FFFFFF;}
	.st2{fill:#1F1A17;}
	.st3{fill:#FCFCFC;}
	.st4{fill:#0F0A07;}
	.st5{fill:#1E1A19;}
	.st6{fill:#DAD8D9;}
	.st7{fill:#DBD9DA;}
	.st8{fill:#DDDDDB;}
	.st9{fill:#D9D9D9;}
	.st10{fill:#D9D8D8;}
	.st11{fill:#D9D8D4;}
	.st12{fill:#DDDBD9;}
</style>
<g>
	<path class="st0" d="M134.3,0c20.5,1.8,41.4,7.7,57.6,20.9c9.2-4.8,19.3-8,29.8-8.3c11.4-0.4,22.6,2.9,32.6,8
		c16.1-13,36.9-18.8,57.3-20.6c0.4,10.3-0.9,20.7-3.4,30.7c-2.5,9-6.1,18.2-12.9,24.9c12,14.6,22.3,30.5,31.3,47.1
		c6.6,12.2,12.5,24.7,17.6,37.6c-21.1-7-43.2-10.8-65.4-11.2c-12.8-0.2-25.7,0.5-38.4,2.3c-1.4,0.2-2.7,0.5-4,0.8
		c-8.1-0.5-16.2-0.8-24.3-0.1c-4-1.3-8.3-1.6-12.4-2.3c-14.3-1.9-28.7-2.8-43.1-1.7c-18.1,1.1-36.2,4.5-53.3,10.5
		c7.5-18.6,16.6-36.6,27.2-53.6c6.3-10.1,13.1-19.8,20.7-29c-6.8-6.4-10.5-15.3-13.1-24C135.3,21.6,133.9,10.8,134.3,0 M145,15.6
		c-0.3,7.3,0.8,14.7,3.2,21.6c1.7,4.6,4.3,9,8.3,11.9c7.8-6.5,15.4-13.4,23.2-19.9C170.3,20.6,157.5,16.6,145,15.6 M266.6,28.8
		c7.6,6.8,15.5,13.3,23,20.1c4.2-3,6.7-7.7,8.4-12.5c2.2-6.7,3.2-13.8,3-20.8C288.6,16.6,276.1,20.5,266.6,28.8 M177.9,84.5
		c-2.9,1.1-4.5,4-5.4,6.9c-1.3,4.4-1.1,9.4,0.7,13.6c1.1,2.3,2.9,4.7,5.6,5.2c2.5,0.5,4.8-1.1,6.2-3c2.5-3.5,3.1-8,2.7-12.2
		c-0.4-3.4-1.6-6.9-4.2-9.2C182,84.3,179.8,83.7,177.9,84.5 M265.2,84.5c-3.2,1.4-4.9,4.7-5.7,7.9c-1.1,4.7-0.7,9.8,1.7,14
		c1.2,2,3.3,4,5.8,3.9c3,0,5.1-2.5,6.3-5c2.1-4.7,2.3-10.2,0.4-14.9C272.7,86.8,269.3,83,265.2,84.5z"/>
	<path class="st1" d="M145,15.6c12.5,1,25.3,5,34.8,13.6c-7.8,6.6-15.4,13.4-23.2,19.9c-4.1-2.8-6.6-7.3-8.3-11.9
		C145.8,30.3,144.7,22.9,145,15.6z"/>
	<path class="st1" d="M266.6,28.8c9.5-8.3,22-12.2,34.4-13.1c0.2,7-0.8,14.1-3,20.8c-1.7,4.7-4.2,9.5-8.4,12.5
		C282.1,42.1,274.2,35.5,266.6,28.8z"/>
	<path class="st2" d="M177.9,84.5c1.9-0.8,4.1-0.2,5.6,1.2c2.6,2.3,3.8,5.8,4.2,9.2c0.4,4.2-0.2,8.7-2.7,12.2c-1.3,2-3.7,3.5-6.2,3
		c-2.7-0.5-4.5-2.8-5.6-5.2c-1.9-4.3-2-9.2-0.7-13.6C173.3,88.5,175,85.6,177.9,84.5z"/>
	<path class="st2" d="M265.2,84.5c4-1.5,7.5,2.3,8.6,5.8c1.8,4.8,1.7,10.3-0.4,14.9c-1.2,2.5-3.3,5-6.3,5c-2.6,0.1-4.6-1.8-5.8-3.9
		c-2.4-4.2-2.9-9.3-1.7-14C260.4,89.2,262.1,85.8,265.2,84.5z"/>
	<path class="st3" d="M156.6,128.2c14.4-1,28.8-0.1,43.1,1.7c4.2,0.7,8.4,1,12.4,2.3c-6.7,0.5-13.4,1.2-19.9,3c-3.3,1-6.8,1.9-9.6,4
		c-1.3,0.9-2.5,2.5-2,4.2c0.9,3,3,5.5,5,7.8c5.4,6,12.1,10.7,19.5,14c5.3,2.2,11,3.9,16.8,4c0,16.2,0,32.3,0,48.5
		c-8.7,5.6-18.9,8.7-29.2,9.6c-1.6-0.5-3.7-1-5,0.4c-1.6,0.1-3.2,0.2-4.8,0.2c0.2,0.8,0.4,1.5,0.6,2.3c0.1,0.2,0.2,0.5,0.3,0.6
		c2.9-0.1,6.1,0.6,8.8-0.8c10.8-0.8,21.9-3.5,30.6-10.2c11.7,7.5,25.8,10.3,39.6,10.4c0.2-0.8,0.4-1.6,0.7-2.3
		c-13.4,0-27.2-2.7-38.7-10.1c0.1-16.2,0-32.4,0.1-48.7c1.6-0.1,3.1-0.1,4.7-0.4c12-1.8,22.9-8.4,31.2-17.1c2.3-2.7,5-5.6,5.5-9.2
		c-0.4-2.5-2.8-3.8-4.8-4.8c-7.9-3.5-16.5-4.4-25-5.3c1.3-0.4,2.7-0.7,4-0.8c12.7-1.8,25.5-2.5,38.4-2.3
		c22.2,0.3,44.3,4.2,65.4,11.2c17.3,6.3,34.2,14.6,47.7,27.3c8.4,8,15.6,18.2,16.8,30c-38.2,0.1-76.3,0-114.5,0.1l-0.3,0.5
		c-0.7,0.8-0.9,2,0,2.9c0.1,0.1,0.3,0.4,0.4,0.6c38.1,0,76.3,0,114.4,0c-0.4,6.5-3,12.5-6.4,18c-27.9-3.5-55.9-6.7-83.8-10.3
		c-0.4-1.1-1.8-1.2-2.4-0.3c-6.4-0.7-12.9-1.5-19.3-2.4c-1.3-0.2-2.6-0.4-4-0.3c-1.5,0.2-1.6,2.8,0,2.8c16.2,2.1,32.4,3.9,48.6,6
		c0.3,1.1,1.7,1.2,2.3,0.3c8.8,1,17.5,2.1,26.3,3.2c-0.4,1.5,1.8,0.8,2.5,0.4c0.5,0,1,0.1,1.6,0.1c0,0.1-0.1,0.4-0.1,0.5
		c0.6,0.8,1.8,0.2,2.5-0.3c7.7,0.8,15.5,1.8,23.2,2.8c-1.7,3.1-4.5,5.4-7,7.8c-14.7,13.1-33,21.1-51.4,27.4
		c-20.8,6.9-42.4,11.3-64.2,14c-17.9,2.3-36.1,3.1-54.1,3.4c-14.8-0.3-29.6-0.8-44.4-2.3c-22.7-2.4-45.4-6.4-67.3-13.1
		c-16.9-5.2-33.6-12-48.3-22c-5.4-3.9-10.7-8.1-15-13.2c1-0.1,1.9-0.4,2.8-0.7c11.3-1.5,22.5-2.9,33.8-4.2c0.8,0.9,2.3,0.9,2.7-0.3
		c10.2-1.3,20.4-2.6,30.6-3.8c0.3,1,1.7,0.8,1.8-0.2c16.2-2.1,32.4-3.9,48.6-6c1.9,0,1.4-3.3-0.4-2.9c-9,0.9-17.9,2.2-26.9,3.2
		c-0.6-1-2-0.8-2.3,0.3c-28,3.5-56.1,6.9-84.1,10.3c-0.8-0.8-2.3-0.9-2.8,0.3c-2.1,0.3-4.2,0.6-6.3,0.8c-4.6-5.5-7.3-12.5-7.8-19.6
		c37.8,0,75.7,0,113.5,0c0.1-0.1,0.4-0.3,0.5-0.4c0.2-0.2,0.7-0.6,1-0.8c-0.1-0.7-0.1-1.6-0.7-2.1c-0.1-0.2-0.4-0.5-0.5-0.6
		c-38,0.1-75.9,0.1-113.9,0c0.6-7.9,4.2-15.2,8.8-21.5c6-8.2,13.8-15,22.2-20.7c10.6-7.1,22.2-12.6,34.2-16.9
		C120.4,132.6,138.5,129.2,156.6,128.2z"/>
	<path class="st2" d="M212.1,132.2c8.1-0.7,16.2-0.5,24.3,0.1c8.5,0.9,17.1,1.8,25,5.3c2,1,4.4,2.3,4.8,4.8
		c-0.5,3.7-3.2,6.5-5.5,9.2c-8.2,8.7-19.2,15.3-31.2,17.1c-1.5-0.5-3.1-0.9-4.6-0.3c-0.9,0.4-0.6,1.5-0.7,2.3
		c0,14.8,0.1,29.6,0,44.4c0,0.9,0,1.9,0.6,2.6c11.5,7.3,25.3,10,38.7,10.1c-0.2,0.8-0.4,1.5-0.7,2.3c-13.8-0.1-27.9-2.9-39.6-10.4
		c-8.7,6.8-19.8,9.4-30.6,10.2c-3,0.1-6,0.1-9.1,0.2c-0.2-0.8-0.4-1.6-0.6-2.3c1.6,0,3.2-0.1,4.8-0.2c1.7-0.1,3.4-0.2,5-0.4
		c10.3-0.9,20.4-4,29.2-9.6c-0.1-16.2,0-32.3,0-48.5c-5.8-0.1-11.5-1.7-16.8-4c-7.3-3.3-14.1-8.1-19.5-14c-2-2.3-4.1-4.8-5-7.8
		c-0.5-1.7,0.7-3.2,2-4.2c2.8-2.1,6.3-3.1,9.6-4C198.7,133.4,205.4,132.7,212.1,132.2z"/>
	<path class="st4" d="M224.9,168.4c1.5-0.6,3.2-0.2,4.6,0.3c-1.5,0.2-3.1,0.3-4.7,0.4c-0.1,16.2,0.1,32.4-0.1,48.7
		c-0.7-0.7-0.6-1.7-0.6-2.6c0.1-14.8,0-29.6,0-44.4C224.3,169.9,224,168.8,224.9,168.4z"/>
	<path class="st5" d="M1.5,198.2c48.8-0.1,97.6-0.1,146.4-0.1c1.5,0,3-0.2,4.5,0.2c0.5,0.6,0.5,1.4,0.7,2.1c-0.2,0.2-0.7,0.6-1,0.8
		c-50.2,0.1-100.5,0-150.7-0.1C-0.5,201.4-0.5,197.9,1.5,198.2z"/>
	<path class="st5" d="M293.9,198.2c12.5-0.2,25,0,37.4-0.1c38,0,76.1,0,114.1,0.1c1.5-0.1,1.8,2.4,0.5,2.9c-2,0.2-4,0-6,0.1
		c-47.2,0.1-94.3,0.1-141.5,0.1c-1.5-0.1-3.1,0.2-4.6-0.2C293,200.2,293.2,199.1,293.9,198.2z"/>
	<path class="st2" d="M141.3,209.6c9-0.9,17.9-2.3,26.9-3.2c1.8-0.4,2.3,2.8,0.4,2.9c-16.2,2.1-32.4,3.9-48.6,6
		c-0.6,0-1.2,0.1-1.8,0.2c-10.2,1.2-20.4,2.4-30.6,3.8c-0.9,0.1-1.8,0.2-2.7,0.3c-11.3,1.3-22.5,2.7-33.8,4.2
		c-10.2,1-20.3,2.5-30.5,3.6c-1.7,0.5-2.6-2.6-0.7-2.9c8.7-1.1,17.4-2.1,26.1-3.2c2.1-0.3,4.2-0.5,6.3-0.8c0.9-0.1,1.9-0.2,2.8-0.3
		c28-3.4,56.1-6.8,84.1-10.3C139.8,209.8,140.6,209.7,141.3,209.6z"/>
	<path class="st2" d="M293,209.3c-1.6,0-1.5-2.7,0-2.8c1.3-0.1,2.7,0.2,4,0.3c6.4,0.8,12.9,1.6,19.3,2.4c0.8,0.1,1.6,0.2,2.4,0.3
		c27.9,3.5,55.9,6.8,83.8,10.3c13.2,1.6,26.4,3.3,39.5,4.8c2-0.1,1.5,3.4-0.4,2.9c-13.9-1.5-27.7-3.5-41.6-5c-7.7-1-15.5-2-23.2-2.8
		c-0.8-0.1-1.6-0.2-2.4-0.3c-0.5-0.1-1.1-0.1-1.6-0.1c-0.8-0.2-1.7-0.3-2.5-0.4c-8.8-1.1-17.5-2.2-26.3-3.2
		c-0.8-0.1-1.5-0.2-2.3-0.3C325.4,213.2,309.2,211.4,293,209.3z"/>
	<path class="st6" d="M316.2,209.2c0.6-0.9,2-0.8,2.4,0.3C317.8,209.3,317,209.3,316.2,209.2z"/>
	<path class="st7" d="M139.1,209.9c0.3-1.1,1.7-1.3,2.3-0.3C140.6,209.7,139.8,209.8,139.1,209.9z"/>
	<path class="st8" d="M118.2,215.5c0.6-0.1,1.2-0.2,1.8-0.2C119.9,216.3,118.5,216.5,118.2,215.5z"/>
	<path class="st7" d="M341.6,215.3c0.8,0,1.5,0.1,2.3,0.3C343.3,216.5,341.9,216.4,341.6,215.3z"/>
	<path class="st9" d="M52.2,220.5c0.5-1.2,2-1.1,2.8-0.3C54,220.3,53.1,220.4,52.2,220.5z"/>
	<path class="st10" d="M84.9,219.6c0.9-0.2,1.8-0.2,2.7-0.3C87.2,220.5,85.7,220.5,84.9,219.6z"/>
	<path class="st11" d="M187.7,227.6c1.4-1.3,3.4-0.9,5-0.4C191.1,227.4,189.4,227.5,187.7,227.6z"/>
	<path class="st12" d="M183.6,230.1c3,0,6-0.1,9.1-0.2c-2.7,1.3-5.9,0.7-8.8,0.8C183.8,230.6,183.6,230.3,183.6,230.1z"/>
</g>
</svg>
