<?xml version="1.0" encoding="utf-8"?>
<!-- Generator: Adobe Illustrator 20.0.0, SVG Export Plug-In . SVG Version: 6.00 Build 0)  -->
<svg version="1.1" id="Layer_1" xmlns="http://www.w3.org/2000/svg" xmlns:xlink="http://www.w3.org/1999/xlink" x="0px" y="0px"
	 viewBox="0 0 106.3 38.7" style="enable-background:new 0 0 106.3 38.7;" xml:space="preserve">
<style type="text/css">
	.st0{fill:#F2F2F2;}
</style>
<g>
	<path class="st0" d="M93.6,18.6c-0.1-0.2,0-0.3,0.2-0.3c0.1,0,0.2,0,0.2,0.1c0.1,0.1,0.2,0.1,0.2,0.2c1.1,1,1.8,1.9,2.2,2.9
		c0.2,0.4-0.3,0.8-1.3,1.2c-0.3,0.1-0.9,0.2-1.7,0.1c-0.8-0.1-1.9-0.3-3.3-0.6c-0.3,1.7-0.6,3.2-0.8,4.5s-0.3,2.5-0.3,3.5
		c0,1,0.1,1.9,0.3,2.5c0,0,0.1,0.1,0.2,0.1c0.1,0.1,0.2,0.1,0.3,0.2c0.1,0.1,0.2,0.1,0.3,0.2c0.1,0.1,0.1,0.1,0.1,0.1
		c-0.1,0.4-0.4,0.7-0.9,0.7c-0.2,0-0.3-0.1-0.4-0.2c-0.5-1-0.7-2.7-0.7-5.1c0-0.9,0-1.9,0.1-3c0.1-1.1,0.2-2.3,0.3-3.6
		c-1.6-0.3-3.3-0.7-5.1-1.1c-1.8-0.4-3.7-0.8-5.6-1.3c-1.4,1.5-3,3-4.7,4.4c-1.7,1.4-3.6,2.9-5.6,4.3c-5.7,4-10.4,6-14.2,6
		c-1.9,0-3.3-0.5-4.3-1.6c-1-1.1-1.5-2.5-1.5-4.4c0-0.8,0.1-1.6,0.3-2.5s0.5-1.8,0.9-2.8c1.4-3.5,3.7-5.6,7-6.4
		c0.7-0.2,1.4-0.3,2.2-0.4c0.8-0.1,1.7-0.1,2.7-0.1c4.5,0,10.2,0.8,17.2,2.3c1.7-1.8,4.1-4.6,7.2-8.2c1.7-2,3.2-3.9,4.5-5.5
		c1.3-1.7,2.4-3.1,3.2-4.5C93.3,0.1,93.5,0,93.7,0c0.5,0,1.1,0.2,1.7,0.6C96,1,96.3,1.3,96.2,1.6c-0.8,2.3-1.4,4.4-2,6.1
		c-0.6,1.7-1,3.2-1.4,4.4c-1.3,4.4-2.1,7.5-2.5,9.5c1.5,0.4,2.7,0.7,3.7,0.7c0.9,0,1.4-0.2,1.4-0.7c0-0.7-0.5-1.5-1.5-2.4
		C93.7,19,93.6,18.8,93.6,18.6z M52.3,19.6c-1,0.9-1.8,2.2-2.4,3.8c-0.6,1.5-0.8,3-0.8,4.5c0,1.7,0.4,3,1.2,3.9c0.4,0.6,1,1,1.6,1.3
		c0.6,0.3,1.4,0.4,2.2,0.4c3.8-0.1,8.4-2,13.7-5.7c3.3-2.4,6.5-5.2,9.7-8.4c-5.7-1.4-11.2-2.1-16.5-2.1c-1,0-2,0-2.8,0.1
		c-0.8,0.1-1.6,0.2-2.2,0.3C54.5,18.1,53.3,18.7,52.3,19.6z M84.2,20.1c1.7,0.4,3.3,0.8,5,1.1c0.4-3.6,1.9-9.5,4.6-17.7
		c0.1-0.3,0.1-0.5,0.1-0.6c0-0.5-0.1-0.7-0.4-0.7c-0.1,0-0.3,0-0.4,0.1c-0.1,0.1-0.2,0.2-0.4,0.3c-2.2,3-4.5,5.8-6.7,8.5
		c-2.2,2.7-4.5,5.2-6.8,7.6C80.8,19.3,82.5,19.7,84.2,20.1z"/>
	<path class="st0" d="M6.6,21.1c2,0,3.7,0.7,4.8,2.1c1.2,1.4,1.8,3,1.8,4.7c0,1.3-0.3,2.5-1,3.5c-0.6,1.1-1.5,1.8-2.5,2.3
		c-1,0.4-2.1,0.7-3.3,0.7c-1.9,0-3.4-0.7-4.7-1.9c-1.2-1.3-1.9-3-1.9-5c0-1,0.3-2.1,0.8-3.1c0.5-1,1.3-1.8,2.3-2.4
		C4.2,21.4,5.3,21.1,6.6,21.1z M6.6,33.5c1.1,0,2-0.2,2.8-0.7s1.3-1.1,1.6-1.8c0.3-0.7,0.5-1.7,0.5-2.8c0-2-0.4-3.6-1.3-4.7
		c-0.9-1.1-2-1.6-3.5-1.6c-1.5,0-2.7,0.6-3.5,1.7c-0.9,1.1-1.3,2.4-1.3,4C1.8,31.5,3.4,33.5,6.6,33.5z"/>
	<path class="st0" d="M16.3,32.5c0,0.3,0.1,0.5,0.3,0.7s0.5,0.3,0.8,0.3c0.2,0,0.4-0.1,0.7-0.2s0.4-0.2,0.6-0.2s0.2,0.1,0.2,0.2
		c0,0.2-0.2,0.4-0.7,0.6s-0.9,0.4-1.5,0.4c-0.4,0-0.8-0.1-1.1-0.4C15.2,33.6,15,33.3,15,33c0-0.3-0.1-1.5-0.1-3.6
		c0-0.3-0.3-0.5-0.9-0.6c-0.3-0.1-0.4-0.2-0.4-0.3c0-0.1,0-0.2,0.1-0.2c0.1-0.1,0.2-0.1,0.3-0.1c0,0,0.2,0,0.5,0.1
		c0.3,0,0.6,0.1,0.8,0.1c0.1,0,0.2,0,0.3-0.1s0.2-0.1,0.3-0.1c0.2,0,0.3,0.4,0.3,1.2V32.5z M19.2,29.5c0-0.4-0.2-0.7-0.7-0.7
		c-0.3,0-0.4-0.1-0.5-0.2c-0.1-0.1-0.1-0.1-0.1-0.2c0-0.2,0.2-0.3,0.5-0.3c0.1,0,0.3,0,0.5,0.1c0.3,0.1,0.6,0.1,0.9,0.1
		c0.1,0,0.2,0,0.3,0c0.1,0,0.2,0,0.2,0c0.2,0,0.2,0.2,0.2,0.5c0,2.7,0,4.1,0.1,4.3c0,0.2,0.3,0.3,0.7,0.4c0.2,0.1,0.4,0.1,0.4,0.2
		c0.1,0,0.1,0.1,0.1,0.2c0,0.1,0,0.1-0.1,0.2c-0.1,0.1-0.2,0.1-0.4,0.1c-0.1,0-0.2,0-0.5-0.1S20.4,34,20.3,34c-0.1,0-0.2,0-0.4,0.1
		c-0.2,0-0.3,0.1-0.3,0.1c-0.1,0-0.2,0-0.3-0.1c0-0.1-0.1-0.2-0.1-0.5c0-0.3,0-0.8,0-1.6V29.5z"/>
	<path class="st0" d="M25.1,32.1c0,0.5,0,0.8,0.1,0.9c0,0.1,0.1,0.2,0.3,0.2c0.2,0,0.4-0.1,0.7-0.3c0.3-0.2,0.5-0.3,0.6-0.3
		c0.1,0,0.1,0,0.2,0.1C27,32.8,27,32.9,27,33c0,0.2-0.2,0.4-0.7,0.8c-0.5,0.4-0.9,0.6-1.2,0.6c-0.9,0-1.4-0.7-1.4-2v-3.4
		c0-0.1,0-0.2,0-0.2s-0.2,0-0.5,0c-0.2,0-0.4,0-0.5-0.1c-0.1-0.1-0.1-0.2-0.1-0.3c0-0.1,0-0.2,0.1-0.2c0.1,0,0.2-0.1,0.4-0.1
		s0.3-0.1,0.4-0.2c0.1-0.1,0.2-0.2,0.4-0.4c0.2-0.2,0.3-0.5,0.4-0.9c0.1-0.4,0.1-0.9,0.1-1.7c0-0.3,0.1-0.5,0.3-0.5
		c0.2,0,0.3,0,0.4,0.1s0.1,0.3,0.1,0.5v2.9c0,0.1,0.1,0.2,0.2,0.2h1.2c0.3,0,0.4,0.1,0.4,0.3c0,0.3-0.2,0.4-0.5,0.4h-1.1
		c-0.1,0-0.1,0-0.1,0s0,0.1,0,0.2V32.1z"/>
	<path class="st0" d="M34.4,27.7c1,0,1.8,0.3,2.5,1c0.7,0.7,1.1,1.4,1.1,2.3c0,1-0.3,1.8-1,2.4c-0.7,0.6-1.6,0.9-2.8,0.9
		c-0.9,0-1.7-0.3-2.5-0.9C31,32.7,30.7,32,30.7,31c0-0.9,0.3-1.7,1-2.3C32.3,28,33.2,27.7,34.4,27.7z M34.4,33.5
		c0.7,0,1.2-0.2,1.6-0.7c0.4-0.5,0.6-1.1,0.6-1.8c0-0.7-0.2-1.3-0.6-1.8c-0.4-0.5-1-0.7-1.6-0.7c-0.7,0-1.2,0.2-1.6,0.7
		c-0.4,0.5-0.6,1.1-0.6,1.8c0,0.8,0.2,1.4,0.6,1.9C33.2,33.3,33.8,33.5,34.4,33.5z"/>
	<path class="st0" d="M39.8,25.5c0-0.7,0.1-1.2,0.2-1.6c0.1-0.4,0.4-0.8,0.7-1.2s0.7-0.7,1.1-0.9c0.4-0.3,0.7-0.4,0.8-0.4
		c0.1,0,0.1,0.1,0.1,0.3c0,0-0.1,0.1-0.2,0.2c-0.5,0.4-0.9,0.9-1.1,1.4c-0.2,0.6-0.3,1.2-0.3,1.9v2.8c0,0.1,0,0.1,0.1,0.1
		c0,0,0.1,0,0.3,0c0.2,0,0.3,0,0.5,0c0.3,0,0.5,0.1,0.5,0.3c0,0.1-0.1,0.2-0.2,0.3c-0.1,0.1-0.2,0.1-0.4,0.1c-0.6,0-0.8,0.2-0.8,0.7
		v3c0,0.3,0,0.5,0.1,0.5s0.1,0.1,0.2,0.2c0.1,0.1,0.3,0.1,0.5,0.2c0.3,0,0.4,0.1,0.5,0.1c0.1,0.1,0.1,0.1,0.1,0.2
		c0,0.2-0.2,0.3-0.5,0.3c-0.2,0-0.5,0-0.8-0.1c-0.3-0.1-0.6-0.1-0.9-0.1c-0.2,0-0.5,0-0.8,0.1s-0.6,0.1-0.6,0.1
		c-0.4,0-0.6-0.1-0.6-0.4c0-0.1,0-0.2,0.1-0.2c0.1-0.1,0.2-0.1,0.5-0.1c0.3,0,0.4-0.1,0.6-0.2c0.1-0.1,0.2-0.2,0.2-0.3
		c0-0.1,0-0.4,0-0.8v-2.8c0-0.4-0.3-0.6-0.8-0.6c-0.4,0-0.6-0.1-0.6-0.4c0-0.2,0.2-0.3,0.6-0.3c0.1,0,0.3,0,0.4,0c0.1,0,0.2,0,0.2,0
		c0.1,0,0.1,0,0.1-0.1V25.5z"/>
	<path class="st0" d="M98.8,29.8l0,0.2c0,0,0.2-0.3,0.4-0.8c0.2-0.6,0.5-1,0.7-1.2c0.2-0.2,0.5-0.4,0.8-0.4c0.2,0,0.4,0,0.5,0.1
		c0.1,0.1,0.2,0.2,0.2,0.2c0,0.2,0,0.3-0.1,0.4c-0.1,0.1-0.2,0.2-0.4,0.3c-0.7,0.6-1.3,1.3-1.6,2.1c-0.3,0.8-0.5,1.5-0.5,2
		c0,0.3,0,0.4,0.1,0.5c0.1,0.1,0.2,0.2,0.5,0.2c0.3,0.1,0.4,0.1,0.5,0.2s0.1,0.2,0.1,0.2c0,0.2-0.1,0.3-0.3,0.3
		c-0.2,0-0.4,0-0.7-0.1s-0.6-0.1-0.9-0.1c-0.2,0-0.4,0-0.7,0.1c-0.2,0.1-0.4,0.1-0.4,0.1c-0.2,0-0.3,0-0.4-0.1s-0.1-0.1-0.1-0.2
		c0-0.1,0-0.1,0.1-0.2s0.2-0.1,0.5-0.2c0.3-0.1,0.4-0.2,0.5-0.3c0.1-0.1,0.1-0.4,0.1-0.8v-2.7c0-0.2,0-0.3-0.1-0.5s-0.2-0.2-0.5-0.3
		c-0.2-0.1-0.4-0.1-0.4-0.2c0-0.1-0.1-0.1-0.1-0.2c0-0.2,0.1-0.3,0.4-0.3c0.1,0,0.2,0,0.4,0s0.3,0,0.4,0c0.1,0,0.2,0,0.3,0
		c0.1,0,0.3,0,0.5,0c0.3,0,0.5,0.3,0.5,1V29.8z"/>
	<path class="st0" d="M104.4,32.1c0,0.5,0,0.8,0.1,0.9c0,0.1,0.1,0.2,0.3,0.2c0.2,0,0.4-0.1,0.7-0.3c0.3-0.2,0.5-0.3,0.6-0.3
		c0.1,0,0.1,0,0.2,0.1c0.1,0.1,0.1,0.2,0.1,0.3c0,0.2-0.2,0.4-0.7,0.8c-0.5,0.4-0.9,0.6-1.2,0.6c-0.9,0-1.4-0.7-1.4-2V29
		c0-0.1,0-0.2,0-0.2s-0.2,0-0.5,0c-0.2,0-0.4,0-0.5-0.1c-0.1-0.1-0.1-0.2-0.1-0.3c0-0.1,0-0.2,0.1-0.2c0.1,0,0.2-0.1,0.4-0.1
		s0.3-0.1,0.4-0.2c0.1-0.1,0.2-0.2,0.4-0.4c0.2-0.2,0.3-0.5,0.4-0.9c0.1-0.4,0.1-0.9,0.1-1.7c0-0.3,0.1-0.5,0.3-0.5
		c0.2,0,0.3,0,0.4,0.1s0.1,0.3,0.1,0.5v2.9c0,0.1,0.1,0.2,0.2,0.2h1.2c0.3,0,0.4,0.1,0.4,0.3c0,0.3-0.2,0.4-0.5,0.4h-1.1
		c-0.1,0-0.1,0-0.1,0s0,0.1,0,0.2V32.1z"/>
	<path class="st0" d="M89.3,28.4c-2.8-0.1-4.1,1.2-3.8,3.1c0.2,0.5,0.7,2.4,0.3,4c-0.4,1.6-2.2,3.1-2,3.1
		C86.6,37.1,97.5,29.2,89.3,28.4z"/>
</g>
</svg>
