<?xml version="1.0" encoding="utf-8"?>
<svg version="1.1" id="Layer_1" xmlns="http://www.w3.org/2000/svg" xmlns:xlink="http://www.w3.org/1999/xlink" x="0px" y="0px"
	 viewBox="0 0 36.8 43.2" style="enable-background:new 0 0 36.8 43.2;" xml:space="preserve">
<style type="text/css">
	.st0{fill:#000000;}
</style>
<g>
	<g>
		<path class="st0" d="M18.5,0c5.6,0,10.2,4.5,10.2,10.2s-4.5,10.2-10.2,10.2S8.3,15.8,8.3,10.2C8.2,4.5,12.9,0,18.5,0"/>
		<path class="st0" d="M26.7,19.5c-2.2,2-5.1,3.2-8.3,3.2s-6.1-1.2-8.3-3.2C4.2,22.7,0,29,0,36.5h36.8C36.8,29,32.7,22.5,26.7,19.5z
			"/>
	</g>
	<g>
		<path class="st0" d="M6.4,43c1.1-0.1,1.8-1.1,1.8-2.3s-0.9-2.2-1.8-2.3l0,0l0,0l0,0l0,0l-6.2,2.3L6.4,43L6.4,43L6.4,43L6.4,43
			L6.4,43z"/>
		<path class="st0" d="M7.5,38.1c1.1,0.1,2.1,1.2,2.1,2.6s-0.9,2.5-2.1,2.6h25.7v-5.1C33.2,38.1,7.5,38.1,7.5,38.1z"/>
		<rect x="34.1" y="38.1" class="st0" width="2.7" height="5.1"/>
	</g>
</g>
</svg>
